# xmcd
#
# Track frame offsets: 
#        150
#        29087
#        49328
#        65302
#        94331
#        125483
#        146464
#        167461
#        183864
#        203270
#        222920
#        257147
#        281291
#
# Disc length: 4000 seconds
#
# Revision: 0
# Processed by: cddbd v1.5.2PL0 Copyright (c) Steve Scherf et al.
# Submitted via: ExactAudioCopy v0.95a5
#
DISCID=b90f9e0d
DTITLE=Various Artist - BLUE SAX! LIVE! SEASON 2009 - 10 cd1 Blues
DYEAR=2011
DGENRE=Blues
TTITLE0=Fire - Memory Of You
TTITLE1=Vorih Blues Band - Nobody Loves You Like I Do
TTITLE2=Mojo Stuff Band - Long Distance Call
TTITLE3=Ben Dover Band - Juice Head Baby
TTITLE4=One Take - Night Time Is The Right Time
TTITLE5=Small House Brown - It Hurts Me Too
TTITLE6=Pricam ti Blues - Bluesifyin'
TTITLE7=Stop - Red House
TTITLE8=Retro Guru - Blue Jean Blues
TTITLE9=Harp Explosion - Shake Your Hips
TTITLE10=Vervet - Tin Pan Alley
TTITLE11=Never 2 Late - Hoochie Coochie Man
TTITLE12=Mr. Bluesfinger - Terraplane Blues
EXTD=
EXTT0=
EXTT1=
EXTT2=
EXTT3=
EXTT4=
EXTT5=
EXTT6=
EXTT7=
EXTT8=
EXTT9=
EXTT10=
EXTT11=
EXTT12=
PLAYORDER=
